<?xml version="1.0" standalone="no"?>
<!DOCTYPE svg PUBLIC "-//W3C//DTD SVG 20010904//EN"
 "http://www.w3.org/TR/2001/REC-SVG-20010904/DTD/svg10.dtd">
<svg version="1.0" xmlns="http://www.w3.org/2000/svg"
 width="512.000000pt" height="512.000000pt" viewBox="0 0 512.000000 512.000000"
 preserveAspectRatio="xMidYMid meet">
<metadata>
Created by potrace 1.14, written by Peter Selinger 2001-2017
</metadata>
<g transform="translate(0.000000,512.000000) scale(0.100000,-0.100000)"
fill="#000000" stroke="none">
<path d="M0 2560 l0 -2560 303 0 304 0 17 82 c10 46 47 162 83 258 36 96 76
207 90 245 14 39 53 124 87 190 34 66 72 145 85 175 12 30 53 109 90 175 74
130 103 190 94 199 -4 3 1 14 10 23 8 10 43 79 77 153 34 74 71 155 82 180 44
95 121 330 144 438 13 62 28 179 34 260 20 281 46 571 52 578 9 8 20 -42 53
-241 35 -206 44 -444 24 -605 -7 -58 -14 -188 -14 -290 -1 -183 -17 -460 -35
-615 -5 -44 -9 -102 -8 -130 0 -27 -10 -108 -23 -180 -12 -71 -23 -155 -25
-185 -7 -158 -51 -470 -90 -635 -7 -33 -14 -63 -14 -67 0 -5 468 -8 1041 -8
871 0 1040 2 1036 14 -3 7 -8 73 -12 147 l-7 134 27 15 c28 15 152 191 169
240 4 14 28 68 52 121 25 53 47 119 50 145 8 65 -20 210 -57 299 -16 39 -35
90 -42 115 l-14 45 -25 -56 c-25 -54 -48 -83 -48 -59 0 6 9 46 20 89 29 112
31 265 3 351 -11 36 -24 88 -28 115 l-8 50 -12 -90 c-14 -99 -33 -161 -45
-148 -5 4 -16 37 -25 73 -20 79 -30 93 -55 80 -10 -6 -21 -10 -24 -10 -13 0
-5 53 23 161 17 63 36 155 44 205 8 51 20 101 26 112 6 11 11 30 11 41 0 10 5
21 12 23 7 3 -14 57 -60 150 l-71 147 -7 115 c-5 80 -4 116 4 116 6 0 13 -6
15 -12 3 -7 6 -8 6 -3 0 6 -3 16 -8 24 -7 11 -13 9 -30 -8 -11 -11 -24 -21
-28 -22 -5 0 -16 -2 -25 -4 -9 -2 -26 8 -39 21 l-22 24 -24 -26 -24 -26 29
-46 c16 -26 41 -75 56 -109 27 -59 30 -62 57 -56 28 5 30 3 80 -101 28 -59 49
-109 47 -112 -3 -2 -27 40 -55 94 -28 53 -58 98 -67 100 -9 2 -30 -10 -45 -27
-80 -85 -301 -125 -301 -54 0 29 -111 268 -137 295 -32 33 -28 41 15 28 46
-13 31 5 -28 35 -27 14 -52 25 -54 25 -3 0 -3 -21 1 -47 l6 -46 -44 7 c-24 4
-64 9 -89 10 -25 2 -55 8 -67 15 -37 19 -26 5 13 -18 20 -12 53 -21 77 -21 23
0 60 -6 81 -14 35 -12 37 -14 17 -21 -12 -3 -27 -2 -34 3 -7 5 -39 12 -72 14
-36 3 -81 15 -112 30 -29 15 -53 22 -53 18 0 -5 5 -12 10 -15 6 -3 10 -16 10
-29 0 -27 30 -56 88 -85 23 -12 42 -26 42 -31 0 -14 -13 -13 -74 10 -55 21
-86 53 -86 89 0 38 -22 69 -66 90 -28 15 -58 42 -84 78 -22 31 -40 50 -40 43
0 -32 104 -168 115 -150 11 18 25 10 25 -12 0 -24 28 -121 29 -103 3 27 21
-25 19 -55 -1 -33 -1 -34 -5 -5 -2 17 -10 35 -17 40 -7 6 -18 19 -24 30 -9 17
-10 14 -5 -17 7 -48 -13 -132 -38 -154 -27 -25 -30 -15 -14 46 26 96 21 118
-34 169 -67 63 -116 163 -136 282 -9 51 -21 100 -26 109 -8 12 -9 11 -4 -5 4
-11 9 -56 11 -100 5 -76 4 -79 -11 -55 -15 24 -16 23 -11 -30 3 -30 6 -62 7
-70 0 -8 5 -4 9 10 7 21 8 18 9 -20 1 -25 10 -65 21 -89 17 -36 17 -41 4 -30
-9 7 -20 22 -24 34 -15 35 -10 -76 4 -117 16 -44 13 -48 -10 -13 -9 13 -19 57
-23 97 l-6 73 -50 25 c-40 20 -65 24 -131 25 -90 0 -114 -12 -139 -70 -11 -26
-13 -4 -10 157 4 196 11 258 27 258 7 0 8 -29 4 -82 -3 -46 -8 -117 -11 -158
-5 -88 4 -57 30 105 8 55 21 115 28 133 12 35 20 36 82 17 11 -3 -5 8 -37 24
-77 42 -100 77 -113 177 -11 80 -6 138 8 101 6 -15 10 -14 43 8 l37 25 31 -20
c17 -11 45 -26 62 -35 30 -13 64 -72 64 -109 0 -8 5 -16 12 -18 8 -3 12 -43
12 -136 l1 -131 21 20 c11 10 25 19 32 19 6 0 9 7 5 16 -5 13 -8 13 -15 2 -7
-9 -8 -7 -5 10 3 12 -3 50 -14 84 -19 64 -20 93 -1 39 6 -17 13 -31 16 -31 8
0 -50 153 -73 194 -32 56 -65 431 -56 630 l7 139 -49 -59 c-26 -32 -71 -87
-98 -121 -28 -35 -51 -59 -51 -55 -1 4 -7 39 -14 79 l-13 71 67 87 c78 101 72
104 -13 5 -57 -66 -60 -68 -63 -42 -3 28 -14 31 -65 19 -20 -5 -21 -4 -10 16
7 12 31 46 55 75 23 30 42 62 42 72 0 10 7 23 16 30 8 8 20 22 25 32 7 12 -7
6 -41 -18 -84 -60 -68 -31 33 58 52 45 90 84 86 86 -9 4 -7 5 -109 -82 -42
-35 -94 -88 -116 -117 -68 -90 -134 -187 -141 -206 -3 -10 -13 -26 -21 -35
-14 -17 -13 -18 11 -18 65 0 89 -31 100 -129 l5 -44 -18 30 c-21 36 -65 69
-103 78 -38 10 -33 -5 13 -37 23 -16 50 -48 65 -78 36 -70 64 -196 58 -259 -3
-30 -1 -51 5 -51 6 0 12 3 15 8 2 4 3 2 1 -4 -5 -21 23 -99 29 -84 4 9 6 4 5
-10 -2 -14 0 -29 4 -35 6 -11 -4 -246 -23 -528 -11 -169 -7 -241 7 -108 3 39
11 71 16 71 18 0 -19 -312 -52 -440 l-19 -75 4 150 c3 83 8 332 11 555 5 339
4 403 -7 392 -15 -14 -15 -16 -17 -80 -1 -24 -6 -41 -11 -37 -6 3 -8 14 -6 24
4 24 7 114 6 201 -2 90 -21 58 -21 -35 0 -85 -8 -123 -22 -103 -6 8 -7 -17 -3
-67 4 -44 9 -165 11 -270 2 -104 12 -329 24 -500 20 -315 26 -529 9 -340 -29
316 -44 445 -75 645 -19 124 -43 270 -54 325 -10 55 -25 145 -31 200 -7 55
-14 94 -17 86 -3 -8 1 -58 8 -112 15 -112 8 -376 -14 -549 l-14 -105 -2 245
c-1 135 -5 274 -9 310 l-6 65 -8 -61 c-4 -34 -15 -71 -25 -81 -18 -21 -60 -47
-76 -48 -10 0 -26 -36 -20 -46 2 -3 -7 -5 -21 -4 -17 2 -22 -1 -18 -11 3 -8
-1 -14 -11 -14 -9 0 -16 -5 -16 -11 0 -5 6 -7 13 -3 9 5 9 3 -1 -7 -11 -12
-14 -12 -22 1 -8 13 -10 12 -10 -2 0 -10 -7 -18 -15 -18 -9 0 -18 -7 -22 -16
-5 -13 -7 -13 -14 -2 -7 10 -9 11 -9 0 0 -7 -5 -10 -12 -6 -7 4 -8 3 -4 -4 4
-7 2 -20 -3 -29 -9 -15 -10 -16 -11 -2 0 9 -7 16 -14 16 -12 0 -13 -5 -4 -21
10 -19 9 -19 -5 -8 -13 11 -16 10 -22 -7 -5 -17 -10 -19 -25 -11 -16 8 -18 7
-14 -4 3 -8 0 -17 -7 -22 -7 -4 -10 -3 -6 3 4 6 0 13 -8 16 -9 4 -12 1 -8 -9
4 -10 0 -12 -13 -7 -14 5 -16 3 -11 -10 6 -15 3 -16 -13 -7 -25 13 -49 2 -29
-12 11 -8 10 -9 -3 -4 -10 3 -18 1 -18 -4 0 -6 -7 -10 -15 -10 -20 0 -19 9 3
27 11 10 7 9 -11 -1 -15 -9 -33 -14 -40 -11 -7 4 -4 0 6 -8 28 -23 20 -27 -20
-11 -34 13 -36 13 -19 -1 19 -15 19 -15 -2 -15 -12 0 -22 -4 -22 -10 0 -14
-16 -12 -19 3 -1 6 -4 132 -7 278 -6 244 -5 267 11 273 9 3 90 54 178 113 89
59 225 146 302 193 l140 87 8 62 c9 72 45 151 79 173 16 11 33 43 52 99 40
116 108 251 168 332 107 145 284 269 443 312 93 25 261 31 321 11 41 -13 66
-14 144 -7 53 5 114 6 137 1 53 -9 144 -53 169 -81 15 -18 8 -16 -37 10 -79
44 -87 39 -9 -7 36 -21 88 -55 116 -75 28 -20 62 -37 74 -37 13 0 75 33 139
74 64 40 189 113 278 160 89 48 170 97 180 108 14 16 19 40 21 114 l4 94
-1871 0 -1871 0 0 -2560z m2056 1488 c-4 -35 -10 -85 -13 -113 -3 -27 -6 -56
-6 -63 0 -6 -21 -38 -46 -70 -49 -61 -71 -102 -70 -130 0 -14 2 -14 11 3 6 11
30 38 55 59 l44 39 -7 -44 c-4 -24 -20 -75 -36 -112 -29 -68 -33 -104 -10 -99
7 1 12 -7 12 -18 0 -32 -37 -26 -43 8 -6 35 -46 231 -51 255 -2 9 0 15 5 12 4
-3 15 7 23 22 8 15 29 42 46 58 30 28 65 83 58 90 -2 2 -33 -33 -70 -77 l-68
-80 0 36 c0 42 5 53 68 151 52 80 92 135 99 135 3 0 2 -28 -1 -62z m-294 5
c-6 -65 -10 -70 -11 -15 0 28 3 52 7 52 4 0 6 -17 4 -37z m268 -248 c0 -8 -68
-75 -77 -75 -4 0 11 18 32 40 39 40 45 45 45 35z m-14 -203 c-9 -17 -21 -34
-27 -38 -7 -4 -2 12 11 34 27 47 40 50 16 4z m-266 -27 c0 -8 -4 -15 -10 -15
-5 0 -7 7 -4 15 4 8 8 15 10 15 2 0 4 -7 4 -15z m-53 -317 c-3 -8 -6 -5 -6 6
-1 11 2 17 5 13 3 -3 4 -12 1 -19z m98 -258 c3 -5 1 -10 -4 -10 -6 0 -11 5
-11 10 0 6 2 10 4 10 3 0 8 -4 11 -10z m0 -92 c-9 -72 -15 -73 -15 -5 0 34 4
57 11 57 7 0 8 -18 4 -52z m66 -327 c-6 -39 -12 -96 -12 -128 l-2 -58 -8 75
c-7 60 -5 88 9 138 21 77 27 65 13 -27z m538 -7 c10 -9 -45 -3 -59 6 -11 7 -5
8 20 4 19 -4 37 -8 39 -10z m1110 -334 c11 -24 11 -24 -3 -6 -9 11 -16 24 -16
30 0 12 5 7 19 -24z m-1734 -85 c-12 -57 -13 -61 -9 -20 6 65 16 113 21 100 1
-6 -4 -42 -12 -80z"/>
<path d="M1971 3684 c-12 -15 -21 -31 -21 -37 0 -12 -1 -13 29 31 27 38 21 43
-8 6z"/>
<path d="M2442 4693 c-45 -57 -73 -120 -82 -182 -5 -31 -20 -105 -34 -166 -34
-150 -49 -296 -50 -510 -1 -214 8 -302 30 -284 8 7 12 19 9 27 -3 8 8 35 24
61 28 44 111 205 111 216 0 3 -6 5 -13 5 -7 0 -33 -40 -57 -90 -24 -49 -45
-88 -47 -87 -2 3 28 202 43 277 4 25 4 25 -6 2 -5 -13 -17 -67 -26 -120 -38
-220 -56 -184 -44 83 12 246 14 267 51 445 37 177 74 283 112 327 16 18 24 33
19 33 -6 0 -24 -17 -40 -37z"/>
<path d="M2752 4647 c79 -93 135 -184 167 -273 42 -115 91 -324 91 -389 0 -30
4 -55 10 -55 5 0 7 21 3 50 -4 32 -2 50 5 50 6 0 35 -46 65 -102 30 -57 67
-127 83 -157 16 -30 46 -71 67 -92 21 -21 36 -43 32 -49 -8 -12 -45 -13 -45
-1 0 5 -8 11 -17 15 -10 3 -25 11 -34 17 -13 10 -27 8 -70 -10 -81 -35 -104
-67 -107 -149 -1 -43 1 -62 7 -53 5 8 7 19 5 26 -3 6 4 22 16 35 11 13 20 27
20 32 0 4 11 8 25 8 14 0 25 -4 25 -10 0 -21 19 -9 28 18 10 27 10 27 11 -10
1 -35 0 -37 -28 -33 -25 3 -31 -1 -40 -25 -8 -23 -7 -28 4 -24 8 3 11 12 8 21
-4 11 0 14 18 11 18 -2 23 -8 21 -23 -3 -15 -1 -17 8 -9 6 6 14 37 17 68 3 31
7 56 9 56 2 0 22 -7 44 -16 36 -14 39 -19 34 -43 -4 -14 -11 -35 -16 -46 -5
-11 6 -2 25 20 19 22 38 37 41 34 3 -3 -9 -41 -28 -85 -40 -96 -49 -131 -36
-139 5 -3 10 3 10 15 0 12 5 18 10 15 10 -6 14 13 11 45 -2 13 0 13 8 1 9 -14
-3 -64 -20 -87 -5 -6 -6 -14 -2 -17 3 -4 -2 -7 -13 -8 -10 0 -14 -3 -7 -5 17
-7 4 -34 -16 -34 -13 0 -13 -2 -3 -9 12 -7 11 -21 -6 -79 -10 -39 -16 -69 -11
-67 4 3 9 -3 12 -12 2 -10 4 -1 4 19 2 72 26 143 74 217 65 98 83 170 59 226
l-9 20 0 -20 c-1 -11 -6 -27 -11 -35 -7 -12 -9 -9 -8 10 5 77 -3 137 -20 156
-10 10 -18 22 -18 25 1 3 -9 28 -21 55 -12 27 -45 112 -72 189 -27 77 -50 136
-50 131 -2 -24 55 -209 85 -275 40 -90 17 -65 -50 53 -44 78 -151 329 -222
520 -39 107 -127 260 -180 314 -56 56 -57 35 -2 -31z m338 -1051 c0 -2 -7 -7
-16 -10 -8 -3 -12 -2 -9 4 6 10 25 14 25 6z m202 -161 c-5 -39 -22 -59 -22
-25 0 19 16 60 23 60 2 0 1 -16 -1 -35z"/>
<path d="M2670 4696 c0 -2 8 -10 18 -17 15 -13 16 -12 3 4 -13 16 -21 21 -21
13z"/>
<path d="M2537 4625 c-5 -22 -10 -49 -12 -59 -2 -11 3 -71 12 -135 26 -194 13
-510 -23 -546 -8 -7 -14 -20 -14 -27 0 -10 -2 -10 -9 1 -5 7 -7 72 -5 145 l3
131 -13 -135 c-7 -74 -12 -138 -9 -142 9 -17 -72 -190 -109 -233 -27 -30 -35
-45 -24 -45 8 0 20 -9 26 -20 8 -15 6 -21 -9 -30 -11 -5 -27 -10 -35 -10 -8 0
-20 -8 -25 -19 -6 -10 -25 -22 -43 -26 -18 -4 -27 -9 -20 -12 10 -4 10 -8 1
-19 -9 -12 -5 -14 22 -16 19 0 39 -1 46 -1 6 0 14 -16 18 -36 3 -20 11 -43 16
-51 8 -12 9 -11 5 5 -15 61 -17 85 -7 85 5 0 13 -4 16 -10 10 -16 25 -12 19 5
-9 23 4 18 31 -11 23 -25 23 -25 18 -2 -3 13 -11 29 -17 37 -8 11 -8 13 2 7 6
-4 12 -2 12 3 0 6 5 11 11 11 5 0 8 -4 4 -9 -3 -5 -1 -12 5 -16 5 -3 10 1 10
10 0 9 5 13 10 10 6 -3 10 0 10 7 1 9 4 8 13 -3 11 -14 14 -14 31 2 24 24 36
16 36 -23 0 -42 6 -33 13 20 5 38 2 44 -16 52 -20 8 -20 9 6 9 15 1 48 -8 72
-19 27 -12 54 -18 69 -14 26 6 93 70 84 80 -4 3 -20 -10 -38 -29 -17 -19 -40
-37 -50 -40 -16 -4 -17 -1 -8 26 7 19 9 89 5 198 -5 128 -4 169 6 173 6 3 3 4
-8 3 -19 -2 -20 -10 -20 -142 -1 -160 -5 -235 -11 -219 -3 6 -16 9 -29 6 -25
-4 -35 12 -12 21 7 3 0 9 -15 16 -16 6 -28 12 -28 15 0 2 14 37 31 77 29 68
31 80 25 149 -7 83 -29 276 -47 415 -6 50 -14 164 -18 255 -5 120 -9 154 -14
125z m53 -674 c0 -39 -4 -51 -17 -54 -13 -3 -12 -5 5 -6 22 -1 23 -3 20 -85
-2 -46 -6 -79 -10 -73 -5 7 -8 3 -8 -11 0 -29 -32 -91 -59 -116 -11 -10 -44
-27 -73 -37 -42 -14 -54 -15 -65 -4 -7 7 -18 15 -25 17 -8 3 5 26 36 64 27 32
67 96 88 142 22 46 45 85 51 88 7 2 13 22 13 43 2 41 19 81 34 81 6 0 10 -22
10 -49z m-20 -371 c0 -5 -9 -10 -20 -10 -11 0 -20 5 -20 10 0 6 9 10 20 10 11
0 20 -4 20 -10z"/>
<path d="M2750 4580 c28 -47 50 -89 50 -94 0 -5 3 -7 6 -3 8 7 -48 113 -81
152 -14 17 -2 -8 25 -55z"/>
<path d="M2225 4622 c-11 -7 -38 -62 -31 -62 2 0 13 16 25 35 22 37 22 39 6
27z"/>
<path d="M2105 4563 c-64 -39 -111 -73 -102 -73 7 0 149 88 161 100 18 18 1
11 -59 -27z"/>
<path d="M2204 4519 c-14 -28 -24 -53 -22 -55 2 -2 16 21 31 51 15 30 25 55
22 55 -3 0 -16 -23 -31 -51z"/>
<path d="M2410 4536 c-15 -39 -12 -46 6 -13 9 16 13 31 10 34 -3 3 -10 -6 -16
-21z"/>
<path d="M1819 4423 c-13 -16 -12 -17 4 -4 16 13 21 21 13 21 -2 0 -10 -8 -17
-17z"/>
<path d="M2603 4350 c0 -25 2 -35 4 -22 2 12 2 32 0 45 -2 12 -4 2 -4 -23z"/>
<path d="M2127 4373 c-8 -13 -37 -115 -36 -127 0 -6 11 20 24 59 21 61 27 93
12 68z"/>
<path d="M2493 4205 c0 -22 2 -30 4 -17 2 12 2 30 0 40 -3 9 -5 -1 -4 -23z"/>
<path d="M3160 4235 c0 -5 5 -17 10 -25 5 -8 10 -10 10 -5 0 6 -5 17 -10 25
-5 8 -10 11 -10 5z"/>
<path d="M2082 4210 c0 -14 2 -19 5 -12 2 6 2 18 0 25 -3 6 -5 1 -5 -13z"/>
<path d="M3185 4176 c48 -154 94 -336 118 -476 4 -21 5 -19 6 8 2 68 -88 421
-121 472 -7 12 -8 11 -3 -4z"/>
<path d="M2071 4164 c0 -11 3 -14 6 -6 3 7 2 16 -1 19 -3 4 -6 -2 -5 -13z"/>
<path d="M2921 4164 c-1 -12 4 -46 10 -75 12 -57 14 -482 3 -534 -10 -45 7
-22 19 27 6 24 10 105 9 182 l-2 138 30 -4 c16 -3 31 0 33 6 2 6 7 -4 11 -21
11 -48 24 -49 22 -3 l-1 40 -44 -2 -45 -3 -13 104 c-14 110 -30 184 -32 145z"/>
<path d="M2663 4035 c0 -22 2 -30 4 -17 2 12 2 30 0 40 -3 9 -5 -1 -4 -23z"/>
<path d="M2881 4025 c0 -5 3 -49 8 -96 5 -48 6 -103 1 -123 -4 -20 -4 -34 0
-31 5 3 10 -3 12 -12 2 -10 4 20 5 67 1 47 -4 112 -12 145 -7 33 -13 56 -14
50z"/>
<path d="M1505 3930 c-8 -16 -15 -39 -14 -52 1 -19 4 -16 17 14 10 21 22 38
28 38 6 0 11 7 11 15 0 25 -26 17 -42 -15z"/>
<path d="M2827 3840 c-3 -36 -9 -112 -12 -169 -3 -58 -13 -120 -21 -139 -17
-41 -14 -49 8 -25 21 23 28 70 35 228 6 143 0 207 -10 105z"/>
<path d="M3432 3810 c0 -14 2 -19 5 -12 2 6 2 18 0 25 -3 6 -5 1 -5 -13z"/>
<path d="M2243 3745 c0 -27 2 -38 4 -22 2 15 2 37 0 50 -2 12 -4 0 -4 -28z"/>
<path d="M2872 3710 c0 -14 2 -19 5 -12 2 6 2 18 0 25 -3 6 -5 1 -5 -13z"/>
<path d="M2132 3660 c0 -14 2 -19 5 -12 2 6 2 18 0 25 -3 6 -5 1 -5 -13z"/>
<path d="M2252 3635 c0 -16 2 -22 5 -12 2 9 2 23 0 30 -3 6 -5 -1 -5 -18z"/>
<path d="M3050 3650 c0 -5 5 -10 10 -10 6 0 10 5 10 10 0 6 -4 10 -10 10 -5 0
-10 -4 -10 -10z"/>
<path d="M2852 3604 c-7 -26 -11 -49 -8 -51 6 -6 28 76 24 88 -2 6 -9 -11 -16
-37z"/>
<path d="M2721 3608 c0 -15 -5 -30 -11 -33 -5 -3 -10 -14 -10 -23 0 -13 3 -12
16 6 8 12 13 35 11 50 l-4 27 -2 -27z"/>
<path d="M2970 3576 c0 -22 3 -27 11 -19 8 8 8 16 0 30 -9 16 -10 14 -11 -11z"/>
<path d="M1717 3508 c4 -7 6 -22 5 -33 -2 -19 -2 -19 9 -2 12 20 6 47 -11 47
-7 0 -8 -5 -3 -12z"/>
<path d="M3440 3473 c0 -22 -3 -56 -6 -74 -5 -24 -3 -31 4 -24 12 11 19 121 9
132 -4 3 -7 -12 -7 -34z"/>
<path d="M2125 3410 c4 -6 11 -8 16 -5 14 9 11 15 -7 15 -8 0 -12 -5 -9 -10z"/>
<path d="M2370 3391 c0 -5 6 -14 13 -20 10 -8 14 -7 14 4 0 8 -6 16 -14 19 -7
3 -13 2 -13 -3z"/>
<path d="M3095 3380 c4 -6 11 -8 16 -5 14 9 11 15 -7 15 -8 0 -12 -5 -9 -10z"/>
<path d="M3302 3327 c-51 -70 -67 -105 -28 -62 52 57 78 94 74 108 -2 7 -22
-13 -46 -46z"/>
<path d="M2430 3308 c0 -4 14 -8 30 -8 17 0 30 2 30 4 0 2 -13 6 -30 8 -16 3
-30 1 -30 -4z"/>
<path d="M3515 3289 c-16 -10 -25 -19 -19 -19 7 0 22 9 35 20 30 24 23 24 -16
-1z"/>
<path d="M3315 3279 c-4 -6 -5 -12 -2 -15 2 -3 7 2 10 11 7 17 1 20 -8 4z"/>
<path d="M3411 3274 c-7 -8 -10 -18 -7 -21 7 -7 36 16 36 28 0 13 -13 10 -29
-7z"/>
<path d="M2360 3255 c0 -5 5 -17 10 -25 5 -8 10 -10 10 -5 0 6 -5 17 -10 25
-5 8 -10 11 -10 5z"/>
<path d="M2385 3178 c9 -47 22 -72 46 -93 l24 -20 -18 21 c-10 12 -27 44 -38
70 -11 27 -17 37 -14 22z"/>
<path d="M2370 3111 c0 -5 5 -13 10 -16 6 -3 10 -2 10 4 0 5 -4 13 -10 16 -5
3 -10 2 -10 -4z"/>
<path d="M2411 3064 c-1 -25 39 -146 67 -199 11 -22 32 -51 48 -65 27 -25 27
-24 -5 22 -38 57 -68 123 -92 203 -10 33 -18 51 -18 39z"/>
<path d="M2930 3070 c-21 -7 -21 -8 -5 -9 11 0 27 4 35 9 18 11 5 11 -30 0z"/>
<path d="M3117 3022 c-15 -16 -25 -31 -22 -35 3 -4 2 -5 -1 -2 -9 6 -64 -27
-64 -37 0 -5 -9 -12 -19 -16 -18 -6 -11 -17 56 -85 42 -42 77 -76 78 -75 1 2
9 32 18 68 19 79 32 128 41 158 4 12 3 22 -2 22 -6 0 -15 -23 -21 -51 -6 -29
-18 -66 -25 -83 -8 -17 -17 -39 -20 -50 -5 -15 -9 -16 -22 -5 -23 19 -11 153
17 192 25 35 20 34 -14 -1z"/>
<path d="M3340 3013 c0 -24 3 -33 9 -25 7 12 4 62 -5 62 -2 0 -4 -17 -4 -37z"/>
<path d="M2266 2975 c62 -180 87 -244 110 -276 47 -69 45 -42 -7 69 -69 145
-111 231 -103 207z"/>
<path d="M1882 2940 c0 -14 2 -19 5 -12 2 6 2 18 0 25 -3 6 -5 1 -5 -13z"/>
<path d="M2160 2903 c-37 -26 -90 -75 -90 -84 0 -4 26 -15 57 -24 31 -9 63
-24 69 -33 11 -14 12 -6 7 43 -3 33 -8 72 -12 88 -6 27 -6 27 -31 10z"/>
<path d="M2930 2886 c0 -10 -15 -33 -34 -52 l-33 -33 31 -6 c17 -4 47 -17 66
-29 52 -33 70 -38 77 -20 6 15 -51 106 -87 139 -19 17 -20 17 -20 1z"/>
<path d="M3421 2874 c0 -11 3 -14 6 -6 3 7 2 16 -1 19 -3 4 -6 -2 -5 -13z"/>
<path d="M1950 2820 c-10 -6 -2 -7 25 -3 49 7 58 13 19 13 -16 0 -36 -5 -44
-10z"/>
<path d="M4990 2655 c-202 -53 -375 -115 -322 -115 7 0 12 -6 12 -14 0 -9 17
-15 57 -18 58 -5 202 30 268 65 16 9 49 19 72 23 l43 6 0 44 c0 24 -1 44 -2
43 -2 0 -59 -15 -128 -34z"/>
<path d="M1581 2360 c0 -36 -8 -157 -16 -270 -17 -242 -18 -251 -6 -230 21 36
41 365 31 490 l-7 75 -2 -65z"/>
<path d="M1483 2070 c-7 -19 -22 -73 -33 -119 -12 -47 -50 -163 -85 -258 -36
-95 -81 -219 -100 -275 -20 -56 -39 -106 -44 -112 -5 -6 -18 -38 -30 -71 -13
-33 -35 -82 -51 -110 -15 -27 -35 -73 -44 -102 -21 -63 -132 -260 -233 -410
-41 -62 -92 -152 -114 -201 -37 -85 -109 -341 -109 -390 l0 -22 237 2 238 3 8
55 c10 78 29 162 39 180 9 17 9 17 -18 -132 -10 -54 -15 -100 -12 -103 3 -4
30 -5 59 -3 48 3 51 4 37 19 -19 18 -17 59 7 174 20 96 22 109 30 200 4 44 14
94 21 111 11 22 14 64 12 160 l-3 129 -13 -120 c-14 -135 -24 -206 -46 -315
-8 -41 -19 -104 -25 -139 -6 -35 -13 -66 -16 -69 -15 -15 -17 17 -5 98 14 95
8 132 -8 58 -7 -28 -10 -34 -11 -18 0 14 22 133 49 265 95 455 121 580 129
635 5 30 29 156 54 280 25 124 48 245 52 270 3 25 15 100 26 166 11 67 19 139
17 160 l-3 39 -12 -35z"/>
<path d="M5084 910 c0 -85 2 -120 3 -77 2 42 2 112 0 155 -1 42 -3 7 -3 -78z"/>
<path d="M1461 548 c-6 -18 -24 -87 -40 -153 -26 -105 -63 -256 -91 -363 -8
-32 -7 -33 18 -30 25 3 26 6 53 168 15 91 39 219 54 284 25 116 28 161 6 94z"/>
<path d="M5073 45 c0 -27 2 -38 4 -22 2 15 2 37 0 50 -2 12 -4 0 -4 -28z"/>
<path d="M3540 28 c0 -16 5 -28 10 -28 13 0 13 20 0 40 -8 12 -10 9 -10 -12z"/>
</g>
</svg>
